<?xml version="1.0" standalone="no"?>
<!DOCTYPE svg PUBLIC "-//W3C//DTD SVG 20010904//EN"
 "http://www.w3.org/TR/2001/REC-SVG-20010904/DTD/svg10.dtd">
<svg version="1.0" xmlns="http://www.w3.org/2000/svg"
 width="100.000000pt" height="100.000000pt" viewBox="0 0 100.000000 100.000000"
 preserveAspectRatio="xMidYMid meet">
<metadata>
Created by potrace 1.11, written by Peter Selinger 2001-2013
</metadata>
<g transform="translate(0.000000,100.000000) scale(0.100000,-0.100000)"
fill="#000000" stroke="none">
<path d="M0 500 l0 -500 500 0 500 0 0 500 0 500 -500 0 -500 0 0 -500z m543
320 c65 -71 91 -135 92 -220 0 -89 -22 -143 -90 -218 l-43 -47 -37 35 c-20 19
-51 62 -68 95 -27 52 -31 70 -31 135 0 62 4 84 27 128 27 52 92 132 107 132 4
0 24 -18 43 -40z m-186 -13 c20 -12 21 -13 5 -43 -16 -28 -20 -30 -49 -22 -36
9 -38 14 -23 52 10 28 32 32 67 13z m351 -12 c17 -38 15 -44 -20 -53 -30 -8
-34 -6 -50 22 -16 30 -15 31 5 43 34 19 53 15 65 -12z m-428 -88 l45 -12 -3
-75 c-4 -86 18 -160 69 -230 17 -23 29 -43 27 -45 -2 -2 -32 6 -67 17 -81 25
-159 98 -184 173 -20 58 -32 147 -24 169 8 19 70 20 137 3z m574 -52 c-2 -142
-81 -255 -205 -293 -35 -11 -65 -19 -67 -17 -2 2 10 22 27 45 51 70 73 144 69
230 l-3 75 45 12 c25 6 65 11 90 10 l45 -2 -1 -60z m-638 -266 c28 -31 109
-69 178 -84 l61 -13 -40 -17 c-82 -35 -185 -13 -250 55 l-29 30 24 25 c29 30
32 31 56 4z m624 -4 l24 -25 -29 -30 c-65 -68 -169 -90 -250 -55 l-40 18 62
13 c71 15 149 52 177 83 24 27 27 26 56 -4z m-299 -135 l40 -21 -20 -27 c-10
-15 -28 -36 -40 -46 -21 -19 -21 -19 -42 0 -12 10 -30 31 -40 46 l-20 27 38
20 c47 25 37 25 84 1z"/>
</g>
</svg>
