<svg width="22" height="16" viewBox="0 0 22 16" fill="none" xmlns="http://www.w3.org/2000/svg">
<path d="M20.7633 6.4894L20.7977 6.49597H6.0763L10.7042 2.43485C10.9308 2.23658 11.0551 1.96799 11.0551 1.68609C11.0551 1.40419 10.9308 1.13748 10.7042 0.938735L9.98407 0.3079C9.75763 0.109629 9.45589 0 9.13412 0C8.81216 0 8.51025 0.108846 8.28381 0.307117L0.350753 7.25272C0.123419 7.45178 -0.000889517 7.71692 4.79195e-06 7.99898C-0.000889517 8.28261 0.123419 8.54791 0.350753 8.74665L8.28381 15.6929C8.51025 15.891 8.81199 16 9.13412 16C9.45589 16 9.75763 15.8908 9.98407 15.6929L10.7042 15.062C10.9308 14.8641 11.0551 14.5997 11.0551 14.3178C11.0551 14.0361 10.9308 13.7857 10.7042 13.5875L6.02407 9.50372H20.7798C21.4428 9.50372 22 9.00334 22 8.42309V7.53087C22 6.95062 21.4264 6.4894 20.7633 6.4894Z" fill="#E5E5E5"/>
</svg>
