<svg width="43" height="38" viewBox="0 0 43 38" fill="none" xmlns="http://www.w3.org/2000/svg">
<path d="M25.9486 7.16414C27.9369 8.43875 29.331 10.5957 29.5848 13.0993C30.3957 13.4867 31.2956 13.7095 32.2497 13.7095C35.733 13.7095 38.5562 10.8228 38.5562 7.26181C38.5562 3.70024 35.733 0.813568 32.2497 0.813568C28.7998 0.814666 26.0012 3.64976 25.9486 7.16414ZM21.8171 20.3668C25.3004 20.3668 28.1236 17.4796 28.1236 13.9185C28.1236 10.3575 25.2999 7.47086 21.8171 7.47086C18.3344 7.47086 15.5096 10.3581 15.5096 13.9191C15.5096 17.4801 18.3344 20.3668 21.8171 20.3668ZM24.4922 20.8063H19.141C14.6886 20.8063 11.0663 24.5105 11.0663 29.063V35.7543L11.083 35.8591L11.5337 36.0034C15.7828 37.3609 19.4742 37.8136 22.5126 37.8136C28.4472 37.8136 31.887 36.0835 32.0989 35.9733L32.5202 35.7554H32.5653V29.063C32.5669 24.5105 28.9446 20.8063 24.4922 20.8063ZM34.9259 14.1495H29.616C29.5585 16.3218 28.6516 18.2779 27.2172 19.6848C31.1749 20.888 34.0705 24.6406 34.0705 29.0729V31.1349C39.3134 30.9384 42.3346 29.4191 42.5337 29.3171L42.9549 29.0987H43V22.4052C43 17.8532 39.3778 14.1495 34.9259 14.1495ZM10.7513 13.7106C11.985 13.7106 13.1329 13.3424 14.1053 12.7153C14.4144 10.6538 15.4951 8.85247 17.039 7.62559C17.0455 7.50488 17.0567 7.38526 17.0567 7.26345C17.0567 3.70189 14.233 0.815214 10.7513 0.815214C7.26755 0.815214 4.44489 3.70189 4.44489 7.26345C4.44489 10.8234 7.26755 13.7106 10.7513 13.7106ZM16.4149 19.6848C14.9875 18.285 14.0838 16.3394 14.0178 14.1803C13.8209 14.1655 13.6261 14.1495 13.4254 14.1495H8.07464C3.62224 14.1495 0 17.8532 0 22.4052V29.0976L0.0166355 29.2007L0.467403 29.3461C3.87606 30.4342 6.91821 30.9357 9.56056 31.0937V29.0729C9.56164 24.6406 12.4562 20.8891 16.4149 19.6848Z" fill="#FBFBFB"/>
</svg>
