<svg width="1440" height="658" viewBox="0 0 1440 658" fill="none" xmlns="http://www.w3.org/2000/svg">
<rect width="1440" height="658" fill="#1B262C"/>
<path d="M1372.58 559.873C1395.08 602.537 1426.17 630.731 1427.96 632.338C1431.39 635.407 1435.69 636.939 1440 636.939C1444.3 636.939 1448.61 635.407 1452.04 632.338C1453.84 630.731 1484.91 602.537 1507.42 559.873C1480.93 549.337 1458.04 534.88 1440 521.19C1421.95 534.88 1399.07 549.337 1372.58 559.873Z" fill="#FBFBFB"/>
<path d="M1324.3 490.003C1266.94 475.452 1219.88 450.097 1184.42 414.638C1180.86 411.085 1177.42 407.391 1174.06 403.584C1151.42 420.4 1137.57 435.707 1136.63 436.75C1130.5 443.602 1130.5 453.975 1136.63 460.827C1139.5 464.032 1207.91 539.317 1295.03 539.317C1337.8 539.317 1376.05 521.176 1404.25 502.33C1382.99 501.009 1354.76 497.724 1324.3 490.003Z" fill="#FBFBFB"/>
<path d="M1427.96 462.232C1431.39 465.301 1435.7 466.838 1440 466.838C1444.31 466.838 1448.61 465.301 1452.04 462.232C1456.47 458.27 1560.48 363.754 1560.48 243.917C1560.48 124.083 1456.47 29.5676 1452.04 25.601C1448.61 22.5321 1444.31 21 1440 21C1435.7 21 1431.39 22.5321 1427.96 25.601C1423.53 29.5676 1319.52 124.083 1319.52 243.917C1319.52 363.75 1423.54 458.27 1427.96 462.232Z" fill="#FBFBFB"/>
<path d="M1338.74 76.2497C1311.14 61.0133 1290.47 53.6629 1289.18 53.2071C1280.5 50.157 1270.91 54.1282 1266.93 62.4185C1266.34 63.6545 1256.92 83.4826 1248.17 113.782C1267.36 117.748 1287.88 123.416 1308.51 131.424C1316.67 112.893 1326.8 94.4094 1338.74 76.2497Z" fill="#FBFBFB"/>
<path d="M1378.92 463.68C1368.15 451.653 1355.11 435.782 1342.23 416.805C1325.33 391.92 1311.83 366.377 1302.12 340.876C1289.72 308.335 1283.43 275.71 1283.43 243.917C1283.43 218.063 1287.58 191.665 1295.81 165.206C1239.78 143.39 1183.9 140.796 1160.53 140.796C1154.06 140.796 1150.08 140.993 1149.27 141.04C1140.09 141.547 1132.76 148.879 1132.25 158.062C1131.92 163.998 1125.2 304.383 1209.94 389.119C1259.92 439.091 1329.23 457.25 1378.92 463.68Z" fill="#FBFBFB"/>
</svg>
