<svg width="37" height="38" viewBox="0 0 37 38" fill="none" xmlns="http://www.w3.org/2000/svg">
<path d="M14.4504 32.658C15.802 35.2436 17.6693 36.9522 17.7771 37.0496C17.9829 37.2356 18.2415 37.3285 18.5001 37.3285C18.7586 37.3285 19.0175 37.2356 19.2233 37.0496C19.3311 36.9522 21.1979 35.2436 22.5495 32.658C20.9588 32.0194 19.5838 31.1433 18.5001 30.3136C17.4161 31.1433 16.0414 32.0194 14.4504 32.658Z" fill="#FBFBFB"/>
<path d="M34.4736 23.1862C34.272 23.4166 34.0648 23.6408 33.8514 23.8561C31.7216 26.0048 28.895 27.5414 25.4497 28.4232C23.6199 28.8915 21.9245 29.0906 20.6472 29.1706C22.3412 30.3127 24.6387 31.4122 27.2072 31.4122C32.4403 31.4122 36.5495 26.8493 36.722 26.6551C37.0904 26.2398 37.0904 25.6115 36.722 25.1962C36.6656 25.1327 35.8334 24.2053 34.4736 23.1862Z" fill="#FBFBFB"/>
<path d="M11.5506 28.4235C8.10532 27.5417 5.2785 26.0051 3.14864 23.8561C2.93495 23.6408 2.72803 23.4169 2.5262 23.1862C1.1667 24.2053 0.334516 25.133 0.278059 25.1962C-0.0903262 25.6115 -0.0903262 26.2401 0.278059 26.6553C0.450536 26.8496 4.55979 31.4122 9.79256 31.4122C12.3614 31.4122 14.6586 30.3127 16.3529 29.1706C15.0756 29.0906 13.3801 28.8915 11.5506 28.4235Z" fill="#FBFBFB"/>
<path d="M17.7771 26.7405C17.9829 26.9265 18.2414 27.0196 18.5 27.0196C18.7586 27.0196 19.0172 26.9265 19.2232 26.7405C19.4892 26.5004 25.7367 20.7724 25.7367 13.5097C25.7367 6.24728 19.4892 0.51923 19.2232 0.278841C19.0175 0.092852 18.7586 0 18.5 0C18.2414 0 17.9829 0.092852 17.7771 0.278841C17.5109 0.51923 11.2633 6.24728 11.2633 13.5097C11.2633 20.7721 17.5112 26.5004 17.7771 26.7405Z" fill="#FBFBFB"/>
<path d="M30.0224 5.62301C29.4968 3.78677 28.931 2.5851 28.8952 2.51048C28.6561 2.00777 28.0805 1.76738 27.5591 1.95194C27.4818 1.97957 26.24 2.42503 24.5818 3.34843C25.2994 4.44898 25.9075 5.5689 26.3981 6.69252C27.637 6.20718 28.8695 5.86369 30.0224 5.62301Z" fill="#FBFBFB"/>
<path d="M12.4181 3.34839C10.7602 2.425 9.51841 1.97954 9.44078 1.95191C8.91939 1.76706 8.34381 2.00774 8.10471 2.51016C8.06914 2.58507 7.50316 3.78673 6.97754 5.62298C8.13012 5.86337 9.36287 6.20687 10.6018 6.6922C11.0924 5.56915 11.7005 4.44894 12.4181 3.34839Z" fill="#FBFBFB"/>
<path d="M27.9043 13.5097C27.9043 15.4365 27.5269 17.4137 26.782 19.3859C26.1985 20.9313 25.388 22.4793 24.3729 23.9874C23.5989 25.1376 22.8158 26.0994 22.1688 26.828C25.1534 26.4386 29.3169 25.3378 32.3185 22.3096C37.4081 17.1742 37.0047 8.6663 36.985 8.30657C36.9545 7.75003 36.5141 7.3057 35.9625 7.27494C35.9137 7.27238 35.6749 7.26013 35.287 7.26013C33.8829 7.26013 30.5262 7.41735 27.1611 8.7395C27.6548 10.343 27.9043 11.9429 27.9043 13.5097Z" fill="#FBFBFB"/>
<path d="M14.8314 26.8283C14.1844 26.0994 13.4013 25.1376 12.6273 23.9874C11.6122 22.4793 10.8014 20.9313 10.218 19.3859C9.47328 17.4137 9.09558 15.4365 9.09558 13.5097C9.09558 11.9429 9.34513 10.343 9.83913 8.7395C6.47398 7.41735 3.11758 7.26013 1.71349 7.26013C1.32506 7.26013 1.08624 7.27209 1.03741 7.27494C0.485819 7.3057 0.0454505 7.75003 0.0149635 8.30657C-0.00479658 8.6663 -0.408185 17.1742 4.68146 22.3096C7.6833 25.3381 11.8468 26.4386 14.8314 26.8283Z" fill="#FBFBFB"/>
</svg>
