<svg width="413" height="397" viewBox="0 0 413 397" fill="none" xmlns="http://www.w3.org/2000/svg">
<path d="M255.24 228.832C262.46 223.952 267.48 213.828 267.48 205.348C267.48 193.716 258.052 184.288 246.424 184.288C234.792 184.288 225.364 193.716 225.364 205.348C225.364 213.824 230.384 223.948 237.604 228.832H167.84V228.848V302.184C172.652 294.828 182.924 289.696 191.5 289.696C203.128 289.696 212.556 299.124 212.556 310.752C212.556 322.38 203.128 331.808 191.5 331.808C182.924 331.808 172.652 326.672 167.84 319.316V392.668H283.68C310.08 392.668 331.68 371.068 331.68 344.668V228.848V228.832H255.24Z" fill="#E5E5E5"/>
<path d="M191.5 289.696C182.924 289.696 172.652 294.828 167.84 302.184V228.848H95.92C102.488 233.984 106.96 243.452 106.976 251.444C107 263.072 97.592 272.52 85.96 272.544C74.332 272.568 64.884 263.16 64.86 251.528C64.844 243.516 69.3 234 75.88 228.848H4V344.672C4 371.072 25.6 392.672 52 392.672H167.84V319.32C172.652 326.676 182.924 331.812 191.5 331.812C203.128 331.812 212.556 322.384 212.556 310.756C212.556 299.128 203.128 289.696 191.5 289.696V289.696Z" fill="#E5E5E5"/>
<path d="M145.644 125.892C153.436 125.892 162.612 130.136 167.836 136.428V65.052H51.9961C25.5961 65.052 3.99609 86.652 3.99609 113.052V228.832V228.848H75.8761C69.3001 234.004 64.8401 243.516 64.8561 251.528C64.8801 263.16 74.3281 272.568 85.9561 272.544C97.5881 272.52 106.996 263.072 106.972 251.444C106.956 243.452 102.484 233.984 95.9161 228.848H167.832V228.832V157.476C162.604 163.768 153.428 168.008 145.64 168.008C134.008 168.008 124.58 158.58 124.58 146.952C124.588 135.32 134.016 125.892 145.644 125.892V125.892Z" fill="#E5E5E5"/>
<path d="M408.76 89.356C406.548 89.356 404.76 91.144 404.76 93.356V117.856C404.76 120.068 406.548 121.856 408.76 121.856C410.972 121.856 412.76 120.068 412.76 117.856V93.356C412.76 91.144 410.968 89.356 408.76 89.356Z" fill="#EA5E5E"/>
<path d="M217.164 80.44C212.284 73.22 202.16 68.2 193.68 68.2C182.048 68.2 172.62 77.628 172.62 89.256C172.62 100.888 182.048 110.316 193.68 110.316C202.156 110.316 212.28 105.296 217.164 98.076V167.84H217.18H290.516C283.16 163.028 278.028 152.756 278.028 144.18C278.028 132.552 287.456 123.124 299.084 123.124C310.712 123.124 320.14 132.552 320.14 144.18C320.14 152.756 315.004 163.028 307.648 167.84H381V52C381 25.6 359.4 4 333 4H217.18H217.164V80.44Z" fill="#E5E5E5"/>
<path d="M336.38 0H220.54C218.328 0 216.54 1.788 216.54 4V70.848C210.856 66.768 203.688 64.2 197.056 64.2C183.24 64.2 172 75.444 172 89.26C172 103.076 183.24 114.32 197.056 114.32C203.688 114.32 210.856 111.752 216.54 107.672V167.844C216.54 170.056 218.344 171.844 220.556 171.844H293.892C295.66 171.844 297.22 170.684 297.724 168.988C298.232 167.292 297.564 165.464 296.084 164.496C290.096 160.58 285.404 151.656 285.404 144.184C285.404 134.78 293.056 127.128 302.464 127.128C311.868 127.128 319.52 134.78 319.52 144.184C319.52 151.656 314.828 160.58 308.84 164.496C307.36 165.464 306.692 167.292 307.2 168.988C307.704 170.684 309.264 171.844 311.032 171.844H384.384C386.596 171.844 388.384 170.056 388.384 167.844V146.86C388.384 144.648 386.596 142.86 384.384 142.86C382.172 142.86 380.384 144.648 380.384 146.86V163.844H320.76C324.904 158.144 327.512 150.92 327.512 144.184C327.512 130.368 316.272 119.128 302.456 119.128C288.64 119.128 277.396 130.368 277.396 144.184C277.396 150.92 280.004 158.144 284.148 163.844H224.54V98.084C224.54 96.328 223.392 94.776 221.712 94.26C220.036 93.76 218.212 94.384 217.228 95.844C213.252 101.724 204.392 106.324 197.056 106.324C187.652 106.324 180 98.672 180 89.264C180 79.856 187.652 72.204 197.056 72.204C204.392 72.204 213.252 76.808 217.228 82.688C218.212 84.14 220.032 84.772 221.712 84.272C223.392 83.756 224.54 82.204 224.54 80.448V8.008H336.38C360.64 8.008 380.38 27.748 380.38 52.008V92.356C380.38 94.568 382.168 96.356 384.38 96.356C386.592 96.356 388.38 94.568 388.38 92.356V52C388.38 23.328 365.052 0 336.38 0V0Z" fill="#EA5E5E"/>
<path d="M331.68 224.832H264.828C268.912 219.148 271.476 211.98 271.476 205.348C271.476 191.532 260.236 180.288 246.42 180.288C232.604 180.288 221.36 191.532 221.36 205.348C221.36 211.98 223.928 219.148 228.008 224.832H171.84V157.472C171.84 155.788 170.784 154.28 169.2 153.712C167.62 153.148 165.844 153.624 164.764 154.92C160.388 160.184 152.348 164.008 145.648 164.008C136.24 164.008 128.588 156.356 128.588 146.948C128.588 137.54 136.24 129.888 145.648 129.888C152.348 129.888 160.388 133.712 164.764 138.976C165.844 140.276 167.62 140.756 169.2 140.184C170.784 139.608 171.84 138.104 171.84 136.424V65.052C171.84 62.84 170.048 61.052 167.84 61.052H52C23.328 61.052 0 84.38 0 113.052V344.672C0 373.344 23.328 396.672 52 396.672H283.68C312.352 396.672 335.68 373.344 335.68 344.672V228.832C335.68 226.62 333.892 224.832 331.68 224.832ZM8 113.052C8 88.792 27.74 69.052 52 69.052H163.84V127.636C158.372 124.052 151.784 121.888 145.648 121.888C131.832 121.888 120.588 133.132 120.588 146.948C120.588 160.764 131.832 172.008 145.648 172.008C151.788 172.008 158.376 169.848 163.84 166.264V224.848H95.92C94.212 224.848 92.692 225.932 92.14 227.544C91.584 229.16 92.112 230.948 93.456 232C98.956 236.3 102.96 244.484 102.976 251.452C102.996 260.856 95.356 268.524 85.952 268.544C85.94 268.544 85.928 268.544 85.916 268.544C76.528 268.544 68.876 260.916 68.856 251.52C68.844 244.524 72.832 236.312 78.344 231.992C79.688 230.936 80.216 229.152 79.66 227.54C79.104 225.928 77.584 224.844 75.88 224.844H8V113.052ZM166.696 315.488C165 315.992 163.84 317.552 163.84 319.32V388.672H52C27.74 388.672 8 368.932 8 344.672V232.848H66.892C63.152 238.424 60.852 245.256 60.864 251.54C60.892 265.34 72.128 276.548 85.924 276.548H85.976C99.792 276.516 111.008 265.252 110.98 251.44C110.968 245.188 108.656 238.396 104.928 232.852H163.844V302.188C163.844 303.956 165.008 305.516 166.7 306.02C168.404 306.532 170.22 305.86 171.192 304.38C175.108 298.392 184.032 293.7 191.504 293.7C200.908 293.7 208.56 301.352 208.56 310.76C208.56 320.164 200.908 327.816 191.504 327.816C184.032 327.816 175.108 323.124 171.192 317.136C170.216 315.648 168.384 314.976 166.696 315.488V315.488ZM327.68 344.672C327.68 368.932 307.94 388.672 283.68 388.672H171.84V329.056C177.536 333.2 184.764 335.808 191.5 335.808C205.316 335.808 216.556 324.568 216.556 310.752C216.556 296.936 205.316 285.692 191.5 285.692C184.764 285.692 177.536 288.3 171.84 292.444V232.832H237.604C239.36 232.832 240.912 231.684 241.428 230.004C241.944 228.324 241.3 226.504 239.844 225.52C233.964 221.544 229.364 212.684 229.364 205.348C229.364 195.94 237.016 188.288 246.424 188.288C255.828 188.288 263.48 195.94 263.48 205.348C263.48 212.684 258.88 221.544 253 225.52C251.548 226.504 250.904 228.324 251.416 230.004C251.928 231.684 253.484 232.832 255.24 232.832H327.68V344.672Z" fill="#EA5E5E"/>
</svg>
