<svg width="96" height="92" viewBox="0 0 96 92" fill="none" xmlns="http://www.w3.org/2000/svg">
<g filter="url(#filter0_d)">
<rect x="15" y="15" width="66" height="62" rx="31" fill="#EA5E5E"/>
</g>
<path d="M43.2644 65.7903C44.8437 68.8115 47.0257 70.8081 47.1517 70.9219C47.3922 71.1392 47.6943 71.2477 47.9964 71.2477C48.2986 71.2477 48.6011 71.1392 48.8415 70.9219C48.9675 70.8081 51.1488 68.8115 52.7282 65.7903C50.8695 65.0441 49.2627 64.0204 47.9964 63.0509C46.7298 64.0204 45.1234 65.0441 43.2644 65.7903Z" fill="#FBFBFB"/>
<path d="M66.6615 54.7225C66.426 54.9918 66.1839 55.2537 65.9345 55.5053C63.4458 58.0161 60.143 59.8116 56.1171 60.842C53.979 61.3891 51.9979 61.6218 50.5054 61.7153C52.4848 63.0499 55.1695 64.3345 58.1708 64.3345C64.2856 64.3345 69.0872 59.0029 69.2887 58.7759C69.7192 58.2906 69.7192 57.5565 69.2887 57.0712C69.2228 56.997 68.2504 55.9134 66.6615 54.7225Z" fill="#FBFBFB"/>
<path d="M39.8761 60.8423C35.8503 59.8119 32.5472 58.0164 30.0584 55.5053C29.8087 55.2537 29.567 54.9921 29.3311 54.7225C27.7426 55.9134 26.7702 56.9973 26.7042 57.0712C26.2737 57.5565 26.2737 58.291 26.7042 58.7762C26.9057 59.0032 31.7074 64.3345 37.8218 64.3345C40.8235 64.3345 43.5078 63.0499 45.4876 61.7153C43.995 61.6218 42.0139 61.3891 39.8761 60.8423Z" fill="#FBFBFB"/>
<path d="M47.1517 58.8757C47.3922 59.0931 47.6943 59.2019 47.9965 59.2019C48.2986 59.2019 48.6007 59.0931 48.8415 58.8757C49.1523 58.5952 56.4525 51.902 56.4525 43.4156C56.4525 34.9295 49.1523 28.2363 48.8415 27.9554C48.6011 27.7381 48.2986 27.6296 47.9965 27.6296C47.6943 27.6296 47.3922 27.7381 47.1517 27.9554C46.8407 28.2363 39.5404 34.9295 39.5404 43.4156C39.5404 51.9016 46.841 58.5952 47.1517 58.8757Z" fill="#FBFBFB"/>
<path d="M61.4602 34.2001C60.8461 32.0544 60.185 30.6503 60.1432 30.5631C59.8638 29.9757 59.1912 29.6948 58.582 29.9104C58.4916 29.9427 57.0406 30.4632 55.103 31.5422C55.9415 32.8282 56.652 34.1368 57.2253 35.4498C58.673 34.8827 60.1131 34.4813 61.4602 34.2001Z" fill="#FBFBFB"/>
<path d="M40.8897 31.5422C38.9525 30.4632 37.5015 29.9427 37.4108 29.9104C36.8015 29.6944 36.129 29.9756 35.8496 30.5627C35.808 30.6502 35.1467 32.0544 34.5325 34.2C35.8793 34.4809 37.3197 34.8823 38.7674 35.4494C39.3407 34.1371 40.0512 32.8282 40.8897 31.5422Z" fill="#FBFBFB"/>
<path d="M58.9854 43.4156C58.9854 45.6671 58.5444 47.9775 57.6739 50.2819C56.9921 52.0877 56.0451 53.8965 54.8589 55.6588C53.9545 57.0027 53.0395 58.1266 52.2834 58.9779C55.771 58.523 60.6359 57.2367 64.1432 53.6982C70.0905 47.6976 69.6191 37.7561 69.596 37.3358C69.5604 36.6855 69.0458 36.1663 68.4013 36.1303C68.3442 36.1273 68.0652 36.113 67.612 36.113C65.9713 36.113 62.049 36.2967 58.1169 37.8417C58.6938 39.7154 58.9854 41.5848 58.9854 43.4156Z" fill="#FBFBFB"/>
<path d="M43.7097 58.9783C42.9536 58.1266 42.0386 57.0027 41.1342 55.6588C39.948 53.8965 39.0007 52.0877 38.3189 50.2819C37.4487 47.9775 37.0074 45.6671 37.0074 43.4156C37.0074 41.5848 37.299 39.7154 37.8762 37.8417C33.9441 36.2967 30.0222 36.113 28.3815 36.113C27.9276 36.113 27.6485 36.127 27.5915 36.1303C26.9469 36.1663 26.4324 36.6855 26.3968 37.3358C26.3737 37.7561 25.9023 47.6976 31.8495 53.6982C35.3572 57.237 40.2221 58.523 43.7097 58.9783Z" fill="#FBFBFB"/>
<defs>
<filter id="filter0_d" x="0" y="0" width="96" height="92" filterUnits="userSpaceOnUse" color-interpolation-filters="sRGB">
<feFlood flood-opacity="0" result="BackgroundImageFix"/>
<feColorMatrix in="SourceAlpha" type="matrix" values="0 0 0 0 0 0 0 0 0 0 0 0 0 0 0 0 0 0 127 0"/>
<feOffset/>
<feGaussianBlur stdDeviation="7.5"/>
<feColorMatrix type="matrix" values="0 0 0 0 0.917647 0 0 0 0 0.368627 0 0 0 0 0.368627 0 0 0 1 0"/>
<feBlend mode="normal" in2="BackgroundImageFix" result="effect1_dropShadow"/>
<feBlend mode="normal" in="SourceGraphic" in2="effect1_dropShadow" result="shape"/>
</filter>
</defs>
</svg>
