<svg width="37" height="37" viewBox="0 0 37 37" fill="none" xmlns="http://www.w3.org/2000/svg">
<path d="M18.1519 10.159C15.376 10.159 13.1176 7.88031 13.1176 5.0795C13.1176 2.27869 15.376 0 18.1519 0C20.9279 0 23.1862 2.27869 23.1862 5.0795C23.1862 7.88031 20.9279 10.159 18.1519 10.159Z" fill="#FBFBFB"/>
<path d="M30.2348 36.6296H13.0257C11.7449 36.6296 10.7067 35.582 10.7067 34.2898C10.7067 33.159 11.5082 32.19 12.6109 31.9877L29.5424 28.8816C31.9184 28.4457 34.1056 30.2874 34.1056 32.7241C34.1056 34.881 32.3726 36.6296 30.2348 36.6296V36.6296Z" fill="#FBFBFB"/>
<path d="M33.6447 18.7441H30.8196L28.2161 14.2408C27.0769 12.2704 25.1762 10.8843 23.019 10.3747C21.7405 11.572 20.0296 12.3053 18.1518 12.3053C16.2741 12.3053 14.5632 11.572 13.2846 10.3747C11.1274 10.8844 9.22674 12.2705 8.0875 14.2408L5.48405 18.7441H2.65896C1.19043 18.7441 0 19.9452 0 21.4269C0 22.9086 1.19043 24.1097 2.65896 24.1097H8.22207C8.55228 24.1097 8.86377 23.955 9.06514 23.6909L10.7038 21.5416V27.4236L18.1518 28.7898L25.5999 27.4234V21.5415L27.2385 23.6909C27.4399 23.9549 27.7514 24.1097 28.0816 24.1097H33.6447C35.1132 24.1097 36.3037 22.9085 36.3037 21.4268C36.3037 19.9451 35.1132 18.7441 33.6447 18.7441V18.7441Z" fill="#FBFBFB"/>
<path d="M12.2077 29.8808L6.76125 28.8816C4.38528 28.4457 2.19812 30.2874 2.19812 32.7241C2.19812 34.881 3.93112 36.6296 6.06886 36.6296H9.23401C8.81929 35.9479 8.57963 35.1466 8.57963 34.2898C8.57963 32.1282 10.1041 30.278 12.2077 29.8808V29.8808Z" fill="#FBFBFB"/>
</svg>
