<svg width="39" height="37" viewBox="0 0 39 37" fill="none" xmlns="http://www.w3.org/2000/svg">
<path d="M36.4674 29.9023H32.3282C31.6552 27.6425 29.5972 25.9816 27.1414 25.9816C24.6855 25.9816 22.6291 27.6425 21.9545 29.9023H2.27185C1.41385 29.9023 0.717529 30.605 0.717529 31.4707C0.717529 32.3364 1.41385 33.039 2.27185 33.039H21.9545C22.6275 35.2989 24.6855 36.9597 27.1413 36.9597C29.5971 36.9597 31.6536 35.2989 32.3281 33.039H36.4673C37.3269 33.039 38.0216 32.3364 38.0216 31.4707C38.0216 30.605 37.3269 29.9023 36.4674 29.9023ZM27.1414 33.8231C25.8559 33.8231 24.8098 32.7677 24.8098 31.4707C24.8098 30.1737 25.8559 29.1182 27.1414 29.1182C28.4268 29.1182 29.4729 30.1737 29.4729 31.4707C29.4729 32.7677 28.4267 33.8231 27.1414 33.8231Z" fill="#FBFBFB"/>
<path d="M36.4674 4.80963H32.3282C31.6536 2.54974 29.5972 0.888916 27.1414 0.888916C24.6855 0.888916 22.6291 2.54974 21.9545 4.80963H2.27185C1.41385 4.80963 0.717529 5.51221 0.717529 6.37791C0.717529 7.24361 1.41385 7.94618 2.27185 7.94618H21.9545C22.6291 10.2061 24.6855 11.867 27.1414 11.867C29.5972 11.867 31.6536 10.2061 32.3282 7.94625H36.4674C37.3269 7.94625 38.0217 7.24368 38.0217 6.37798C38.0217 5.51228 37.3269 4.80963 36.4674 4.80963ZM27.1414 8.73035C25.8559 8.73035 24.8098 7.67491 24.8098 6.37791C24.8098 5.0809 25.8559 4.02546 27.1414 4.02546C28.4268 4.02546 29.4729 5.0809 29.4729 6.37791C29.4729 7.67491 28.4267 8.73035 27.1414 8.73035Z" fill="#FBFBFB"/>
<path d="M36.4674 17.3561H16.7848C16.1102 15.0962 14.0538 13.4353 11.598 13.4353C9.14216 13.4353 7.08569 15.0962 6.41115 17.3561H2.27185C1.41385 17.3561 0.717529 18.0586 0.717529 18.9243C0.717529 19.79 1.41385 20.4926 2.27185 20.4926H6.41108C7.08569 22.7525 9.14208 24.4133 11.5979 24.4133C14.0537 24.4133 16.1102 22.7525 16.7847 20.4926H36.4673C37.3269 20.4926 38.0216 19.79 38.0216 18.9243C38.0217 18.0586 37.3269 17.3561 36.4674 17.3561ZM11.5979 21.2768C10.3124 21.2768 9.26638 20.2213 9.26638 18.9243C9.26638 17.6273 10.3124 16.5719 11.5979 16.5719C12.8834 16.5719 13.9294 17.6273 13.9294 18.9243C13.9294 20.2213 12.8834 21.2768 11.5979 21.2768Z" fill="#FBFBFB"/>
</svg>
