<svg width="22" height="23" viewBox="0 0 22 23" fill="none" xmlns="http://www.w3.org/2000/svg">
<path d="M21.2566 17.4018L17.622 13.7672C18.2829 12.4456 18.7234 10.9036 18.7234 9.3617C18.7234 4.18523 14.5382 0 9.3617 0C4.18523 0 0 4.18523 0 9.3617C0 14.5382 4.18523 18.7234 9.3617 18.7234C10.9036 18.7234 12.4456 18.2829 13.7672 17.622L17.4018 21.2566C18.5031 22.3579 20.1552 22.3579 21.2566 21.2566C22.2478 20.1552 22.2478 18.5031 21.2566 17.4018ZM9.3617 16.5206C5.39675 16.5206 2.20275 13.3267 2.20275 9.3617C2.20275 5.39675 5.39675 2.20275 9.3617 2.20275C13.3267 2.20275 16.5207 5.39675 16.5207 9.3617C16.5207 13.3267 13.3267 16.5206 9.3617 16.5206Z" fill="#FBFBFB"/>
</svg>
