<svg width="150" height="109" viewBox="0 0 150 109" fill="none" xmlns="http://www.w3.org/2000/svg">
<path d="M72.0471 107.41C72.8811 108.157 73.9291 108.531 74.977 108.531C76.025 108.531 77.073 108.157 77.9081 107.41C78.9858 106.446 104.306 83.4373 104.306 54.265C104.306 25.0938 78.9858 2.08562 77.9081 1.12003C77.0741 0.372963 76.025 0 74.977 0C73.9291 0 72.8811 0.372963 72.0471 1.12003C70.9683 2.08562 45.6479 25.0938 45.6479 54.265C45.6479 83.4362 70.9694 106.446 72.0471 107.41Z" fill="#FBFBFB"/>
<path d="M121.675 22.586C119.545 15.2103 117.252 10.3835 117.107 10.0837C116.138 8.06448 113.805 7.09889 111.692 7.84024C111.379 7.95122 106.346 9.74053 99.6256 13.4496C102.534 17.8702 104.998 22.3686 106.986 26.882C112.008 24.9325 117.003 23.5527 121.675 22.586Z" fill="#FBFBFB"/>
<path d="M50.328 13.4496C43.609 9.74052 38.5762 7.95121 38.2616 7.84023C36.1485 7.09774 33.8158 8.06447 32.8468 10.0826C32.7026 10.3835 30.4088 15.2103 28.2786 22.586C32.9498 23.5516 37.9459 24.9313 42.9671 26.8808C44.9555 22.3698 47.4198 17.8702 50.328 13.4496Z" fill="#FBFBFB"/>
<path d="M113.091 54.265C113.091 62.0045 111.562 69.9466 108.543 77.8681C106.178 84.0757 102.893 90.2937 98.7791 96.3515C95.6421 100.971 92.4685 104.835 89.8463 107.761C101.942 106.197 118.816 101.775 130.981 89.6118C151.608 68.9844 149.973 34.8103 149.893 33.3653C149.77 31.1298 147.985 29.3451 145.75 29.2215C145.552 29.2112 144.584 29.162 143.012 29.162C137.321 29.162 123.717 29.7936 110.079 35.1043C112.08 41.5453 113.091 47.9715 113.091 54.265Z" fill="#FBFBFB"/>
<path d="M60.1088 107.762C57.4867 104.835 54.313 100.971 51.176 96.3515C47.062 90.2937 43.7763 84.0757 41.4115 77.8681C38.3935 69.9466 36.8627 62.0045 36.8627 54.265C36.8627 47.9715 37.8741 41.5453 39.8762 35.1043C26.2378 29.7936 12.635 29.162 6.94444 29.162C5.37022 29.162 4.40235 29.2101 4.20442 29.2215C1.96893 29.3451 0.184203 31.1298 0.0606444 33.3653C-0.0194397 34.8103 -1.6543 68.9844 18.9731 89.6118C31.139 101.777 48.0127 106.197 60.1088 107.762Z" fill="#FBFBFB"/>
</svg>
