<svg width="15" height="15" viewBox="0 0 15 15" fill="none" xmlns="http://www.w3.org/2000/svg">
<path d="M14.5353 9.41837L10.1114 2.32853C9.54506 1.42078 8.56876 0.878906 7.5 0.878906C6.43124 0.878906 5.45494 1.42078 4.88857 2.32853L0.464745 9.41837C0.160675 9.90566 0 10.4681 0 11.0449C0 12.7412 1.37993 14.1211 3.07617 14.1211H11.9238C13.6201 14.1211 15 12.7412 15 11.0449C15 10.4681 14.8393 9.90566 14.5353 9.41837V9.41837ZM11.9238 13.2422H3.07617C1.86459 13.2422 0.878906 12.2565 0.878906 11.0449C0.878906 10.6328 0.993576 10.2312 1.21044 9.88369L5.63427 2.79385C6.03905 2.14508 6.73645 1.75781 7.5 1.75781C8.26355 1.75781 8.96095 2.14508 9.36573 2.79385L13.7896 9.88369C14.0064 10.2312 14.1211 10.6328 14.1211 11.0449C14.1211 12.2565 13.1354 13.2422 11.9238 13.2422Z" fill="#EA5E5E"/>
<path d="M8.62015 3.25905C8.37696 2.86938 7.95822 2.63672 7.5 2.63672C7.04178 2.63672 6.62304 2.86938 6.37985 3.25905L1.95614 10.3489C1.82636 10.5568 1.75781 10.7975 1.75781 11.0449C1.75781 11.7719 2.34924 12.3633 3.07617 12.3633H11.9238C12.6508 12.3633 13.2422 11.7719 13.2422 11.0449C13.2422 10.7975 13.1736 10.5568 13.044 10.3489L8.62015 3.25905ZM7.93945 10.5762H7.06055V9.69727H7.93945V10.5762ZM7.93945 8.81836H7.06055V5.71289H7.93945V8.81836Z" fill="#EA5E5E"/>
</svg>
